# Blender v2.92.0 OBJ File: 'Low Poly Coin.blend'
# www.blender.org
mtllib Low Poly Coin_000196.mtl
o Cylinder
v 0.589644 1.000000 -0.815486
v 0.756331 1.000000 -0.663822
v 0.556705 0.690983 -0.779285
v 0.723393 0.690983 -0.627621
v 0.461115 0.412214 -0.674224
v 0.627802 0.412214 -0.522561
v 0.312228 0.190983 -0.510589
v 0.478916 0.190983 -0.358926
v 0.124621 0.048943 -0.304397
v 0.291308 0.048943 -0.152734
v -0.083344 -0.000000 -0.075832
v 0.083344 -0.000000 0.075832
v -0.291308 0.048943 0.152734
v -0.124621 0.048943 0.304397
v -0.478915 0.190983 0.358926
v -0.312228 0.190983 0.510589
v -0.627802 0.412214 0.522561
v -0.461114 0.412214 0.674224
v -0.723393 0.690983 0.627621
v -0.556705 0.690983 0.779285
v -0.756331 1.000000 0.663822
v -0.589644 1.000000 0.815486
v -0.723392 1.309017 0.627621
v -0.556705 1.309017 0.779284
v -0.627802 1.587785 0.522561
v -0.461114 1.587785 0.674224
v -0.478915 1.809017 0.358926
v -0.312228 1.809017 0.510589
v -0.291308 1.951056 0.152733
v -0.124620 1.951056 0.304397
v -0.083343 2.000000 -0.075832
v 0.083344 2.000000 0.075831
v 0.124622 1.951056 -0.304398
v 0.291309 1.951056 -0.152735
v 0.312229 1.809016 -0.510590
v 0.478916 1.809016 -0.358927
v 0.461115 1.587784 -0.674225
v 0.627802 1.587784 -0.522562
v 0.556706 1.309015 -0.779285
v 0.723393 1.309015 -0.627622
v 0.691390 0.706433 -0.592449
v 0.722681 1.000000 -0.626840
v 0.600579 0.441604 -0.492641
v 0.459137 0.231433 -0.337188
v 0.280910 0.096496 -0.141306
v 0.083344 0.050000 0.075832
v -0.114223 0.096496 0.292969
v -0.292450 0.231433 0.488852
v -0.433892 0.441604 0.644305
v -0.524703 0.706434 0.744112
v -0.555994 1.000000 0.778503
v -0.524703 1.293566 0.744112
v -0.433891 1.558396 0.644305
v -0.292449 1.768566 0.488851
v -0.114222 1.903504 0.292968
v 0.083344 1.950000 0.075831
v 0.280911 1.903503 -0.141307
v 0.459138 1.768565 -0.337189
v 0.600579 1.558395 -0.492642
v 0.691390 1.293564 -0.592449
v 0.669200 0.706433 -0.612638
v 0.700492 1.000000 -0.647029
v 0.578389 0.441604 -0.512831
v 0.436947 0.231433 -0.357378
v 0.258720 0.096496 -0.161495
v 0.061154 0.050000 0.055642
v -0.136412 0.096496 0.272779
v -0.314639 0.231433 0.468662
v -0.456081 0.441604 0.624115
v -0.546892 0.706434 0.723922
v -0.578184 1.000000 0.758313
v -0.546892 1.293566 0.723922
v -0.456081 1.558396 0.624115
v -0.314639 1.768566 0.468662
v -0.136412 1.903504 0.272779
v 0.061155 1.950000 0.055641
v 0.258721 1.903503 -0.161496
v 0.436948 1.768565 -0.357379
v 0.578390 1.558395 -0.512832
v 0.669201 1.293564 -0.612639
v 0.555994 1.000000 -0.778503
v 0.524703 0.706433 -0.744112
v 0.433892 0.441604 -0.644305
v 0.292450 0.231433 -0.488852
v 0.114223 0.096496 -0.292969
v -0.083344 0.050000 -0.075832
v -0.280910 0.096496 0.141306
v -0.459137 0.231433 0.337188
v -0.600579 0.441604 0.492642
v -0.691390 0.706434 0.592449
v -0.722681 1.000000 0.626840
v -0.691390 1.293566 0.592448
v -0.600579 1.558396 0.492641
v -0.459137 1.768566 0.337188
v -0.280909 1.903504 0.141305
v -0.083343 1.950000 -0.075832
v 0.114223 1.903503 -0.292970
v 0.292450 1.768565 -0.488852
v 0.433892 1.558395 -0.644305
v 0.524703 1.293564 -0.744112
v 0.578184 1.000000 -0.758313
v 0.546892 0.706433 -0.723922
v 0.456081 0.441604 -0.624115
v 0.314639 0.231433 -0.468662
v 0.136412 0.096496 -0.272779
v -0.061154 0.050000 -0.055642
v -0.258720 0.096496 0.161495
v -0.436947 0.231433 0.357378
v -0.578389 0.441604 0.512831
v -0.669200 0.706434 0.612638
v -0.700492 1.000000 0.647029
v -0.669200 1.293566 0.612638
v -0.578389 1.558396 0.512831
v -0.436947 1.768566 0.357377
v -0.258720 1.903504 0.161495
v -0.061153 1.950000 -0.055643
v 0.136413 1.903503 -0.272780
v 0.314640 1.768565 -0.468663
v 0.456082 1.558395 -0.624116
v 0.546893 1.293564 -0.723923
vt 1.000000 0.500000
vt 1.000000 1.000000
vt 0.950000 1.000000
vt 0.950000 0.500000
vt 0.900000 1.000000
vt 0.900000 0.500000
vt 0.850000 1.000000
vt 0.850000 0.500000
vt 0.800000 1.000000
vt 0.800000 0.500000
vt 0.750000 1.000000
vt 0.750000 0.500000
vt 0.700000 1.000000
vt 0.700000 0.500000
vt 0.650000 1.000000
vt 0.650000 0.500000
vt 0.600000 1.000000
vt 0.600000 0.500000
vt 0.550000 1.000000
vt 0.550000 0.500000
vt 0.500000 1.000000
vt 0.500000 0.500000
vt 0.450000 1.000000
vt 0.450000 0.500000
vt 0.400000 1.000000
vt 0.400000 0.500000
vt 0.350000 1.000000
vt 0.350000 0.500000
vt 0.300000 1.000000
vt 0.300000 0.500000
vt 0.250000 1.000000
vt 0.250000 0.500000
vt 0.200000 1.000000
vt 0.200000 0.500000
vt 0.150000 1.000000
vt 0.150000 0.500000
vt 0.100000 1.000000
vt 0.100000 0.500000
vt 0.750000 1.000000
vt 0.700000 1.000000
vt 0.050000 1.000000
vt 0.050000 0.500000
vt -0.000000 1.000000
vt -0.000000 0.500000
vt 0.450000 0.500000
vt 0.500000 0.500000
vt 0.550000 1.000000
vt 0.600000 1.000000
vt 0.600000 1.000000
vt 0.550000 1.000000
vt 0.500000 1.000000
vt 0.450000 1.000000
vt 0.250000 1.000000
vt 0.200000 1.000000
vt 0.850000 1.000000
vt 0.800000 1.000000
vt 0.350000 1.000000
vt 0.300000 1.000000
vt 0.100000 1.000000
vt 0.050000 1.000000
vt 0.950000 1.000000
vt 0.900000 1.000000
vt 0.650000 1.000000
vt 0.400000 1.000000
vt 0.150000 1.000000
vt -0.000000 1.000000
vt 1.000000 1.000000
vt 0.324164 0.478254
vt 0.250000 0.490000
vt 0.175836 0.478254
vt 0.108932 0.444164
vt 0.055836 0.391069
vt 0.021747 0.324164
vt 0.010000 0.250000
vt 0.021746 0.175836
vt 0.055836 0.108932
vt 0.108931 0.055836
vt 0.175836 0.021746
vt 0.250000 0.010000
vt 0.324164 0.021746
vt 0.391068 0.055836
vt 0.444164 0.108932
vt 0.478254 0.175836
vt 0.490000 0.250000
vt 0.478254 0.324164
vt 0.444164 0.391068
vt 0.391068 0.444164
vt 0.950000 1.000000
vt 0.900000 1.000000
vt 0.200000 1.000000
vt 0.150000 1.000000
vt 0.500000 1.000000
vt 0.850000 1.000000
vt 0.100000 1.000000
vt 0.450000 1.000000
vt 0.800000 1.000000
vt 0.050000 1.000000
vt 0.400000 1.000000
vt 0.750000 1.000000
vt -0.000000 1.000000
vt 0.350000 1.000000
vt 0.700000 1.000000
vt 0.300000 1.000000
vt 0.650000 1.000000
vt 0.250000 1.000000
vt 1.000000 1.000000
vt 0.900000 0.500000
vt 0.850000 0.500000
vt 0.850000 0.500000
vt 0.900000 0.500000
vt 0.200000 0.500000
vt 0.250000 0.500000
vt 0.800000 0.500000
vt 0.550000 0.500000
vt 0.600000 0.500000
vt 0.300000 0.500000
vt 0.350000 0.500000
vt 0.050000 0.500000
vt 0.100000 0.500000
vt 0.950000 0.500000
vt 0.650000 0.500000
vt 0.700000 0.500000
vt 0.400000 0.500000
vt 0.150000 0.500000
vt 0.750000 0.500000
vt -0.000000 0.500000
vt 1.000000 0.500000
vt 0.750000 0.490000
vt 0.824164 0.478254
vt 0.891068 0.444164
vt 0.944164 0.391068
vt 0.978254 0.324164
vt 0.990000 0.250000
vt 0.978254 0.175836
vt 0.944164 0.108932
vt 0.891068 0.055836
vt 0.824164 0.021746
vt 0.750000 0.010000
vt 0.675836 0.021746
vt 0.608931 0.055836
vt 0.555836 0.108932
vt 0.521746 0.175836
vt 0.510000 0.250000
vt 0.521747 0.324164
vt 0.555836 0.391069
vt 0.608932 0.444164
vt 0.675836 0.478254
vt 0.100000 0.500000
vt 0.150000 0.500000
vt 0.450000 0.500000
vt 0.500000 0.500000
vt 0.800000 0.500000
vt 0.050000 0.500000
vt 0.400000 0.500000
vt 0.750000 0.500000
vt -0.000000 0.500000
vt 0.350000 0.500000
vt 0.700000 0.500000
vt 0.300000 0.500000
vt 0.650000 0.500000
vt 0.250000 0.500000
vt 0.600000 0.500000
vt 0.950000 0.500000
vt 1.000000 0.500000
vt 0.200000 0.500000
vt 0.550000 0.500000
vn 0.6647 -0.1564 -0.7305
vn 0.5996 -0.4540 -0.6590
vn 0.4759 -0.7071 -0.5230
vn 0.3055 -0.8910 -0.3358
vn 0.1053 -0.9877 -0.1157
vn -0.1053 -0.9877 0.1157
vn -0.3055 -0.8910 0.3358
vn -0.4759 -0.7071 0.5230
vn -0.5996 -0.4540 0.6590
vn -0.6647 -0.1564 0.7305
vn -0.6647 0.1564 0.7305
vn -0.5996 0.4540 0.6590
vn -0.4759 0.7071 0.5230
vn -0.3055 0.8910 0.3358
vn -0.1053 0.9877 0.1157
vn 0.1053 0.9877 -0.1157
vn 0.3055 0.8910 -0.3358
vn 0.4759 0.7071 -0.5230
vn 0.7397 0.0000 0.6730
vn 0.5996 0.4540 -0.6590
vn 0.6647 0.1564 -0.7305
vn -0.7397 0.0000 -0.6730
g Cylinder_Cylinder_Material.001
usemtl Material.001
s off
f 1/1/1 2/2/1 4/3/1 3/4/1
f 3/4/2 4/3/2 6/5/2 5/6/2
f 5/6/3 6/5/3 8/7/3 7/8/3
f 7/8/4 8/7/4 10/9/4 9/10/4
f 9/10/5 10/9/5 12/11/5 11/12/5
f 11/12/6 12/11/6 14/13/6 13/14/6
f 13/14/7 14/13/7 16/15/7 15/16/7
f 15/16/8 16/15/8 18/17/8 17/18/8
f 17/18/9 18/17/9 20/19/9 19/20/9
f 19/20/10 20/19/10 22/21/10 21/22/10
f 21/22/11 22/21/11 24/23/11 23/24/11
f 23/24/12 24/23/12 26/25/12 25/26/12
f 25/26/13 26/25/13 28/27/13 27/28/13
f 27/28/14 28/27/14 30/29/14 29/30/14
f 29/30/15 30/29/15 32/31/15 31/32/15
f 31/32/16 32/31/16 34/33/16 33/34/16
f 33/34/17 34/33/17 36/35/17 35/36/17
f 35/36/18 36/35/18 38/37/18 37/38/18
f 14/13/19 12/11/19 46/39/19 47/40/19
f 37/38/20 38/37/20 40/41/20 39/42/20
f 39/42/21 40/41/21 2/43/21 1/44/21
f 21/22/22 23/24/22 92/45/22 91/46/22
f 50/47/20 49/48/20 69/49/20 70/50/20
f 24/23/19 22/21/19 51/51/19 52/52/19
f 34/33/19 32/31/19 56/53/19 57/54/19
f 10/9/19 8/7/19 44/55/19 45/56/19
f 20/19/19 18/17/19 49/48/19 50/47/19
f 30/29/19 28/27/19 54/57/19 55/58/19
f 40/41/19 38/37/19 59/59/19 60/60/19
f 6/5/19 4/3/19 41/61/19 43/62/19
f 16/15/19 14/13/19 47/40/19 48/63/19
f 26/25/19 24/23/19 52/52/19 53/64/19
f 36/35/19 34/33/19 57/54/19 58/65/19
f 12/11/19 10/9/19 45/56/19 46/39/19
f 22/21/19 20/19/19 50/47/19 51/51/19
f 32/31/19 30/29/19 55/58/19 56/53/19
f 2/43/19 40/41/19 60/60/19 42/66/19
f 8/7/19 6/5/19 43/62/19 44/55/19
f 18/17/19 16/15/19 48/63/19 49/48/19
f 4/3/19 2/2/19 42/67/19 41/61/19
f 28/27/19 26/25/19 53/64/19 54/57/19
f 38/37/19 36/35/19 58/65/19 59/59/19
f 61/68/19 62/69/19 80/70/19 79/71/19 78/72/19 77/73/19 76/74/19 75/75/19 74/76/19 73/77/19 72/78/19 71/79/19 70/80/19 69/81/19 68/82/19 67/83/19 66/84/19 65/85/19 64/86/19 63/87/19
f 43/62/12 41/61/12 61/88/12 63/89/12
f 58/65/7 57/54/7 77/90/7 78/91/7
f 51/51/21 50/47/21 70/50/21 71/92/21
f 44/55/13 43/62/13 63/89/13 64/93/13
f 59/59/8 58/65/8 78/91/8 79/94/8
f 52/52/1 51/51/1 71/92/1 72/95/1
f 45/56/14 44/55/14 64/93/14 65/96/14
f 60/60/9 59/59/9 79/94/9 80/97/9
f 53/64/2 52/52/2 72/95/2 73/98/2
f 46/39/15 45/56/15 65/96/15 66/99/15
f 42/66/10 60/60/10 80/97/10 62/100/10
f 54/57/3 53/64/3 73/98/3 74/101/3
f 47/40/16 46/39/16 66/99/16 67/102/16
f 55/58/4 54/57/4 74/101/4 75/103/4
f 48/63/17 47/40/17 67/102/17 68/104/17
f 56/53/5 55/58/5 75/103/5 76/105/5
f 49/48/18 48/63/18 68/104/18 69/49/18
f 41/61/11 42/67/11 62/106/11 61/88/11
f 57/54/6 56/53/6 76/105/6 77/90/6
f 83/107/13 84/108/13 104/109/13 103/110/13
f 31/32/22 33/34/22 97/111/22 96/112/22
f 7/8/22 9/10/22 85/113/22 84/108/22
f 17/18/22 19/20/22 90/114/22 89/115/22
f 27/28/22 29/30/22 95/116/22 94/117/22
f 37/38/22 39/42/22 100/118/22 99/119/22
f 3/4/22 5/6/22 83/107/22 82/120/22
f 13/14/22 15/16/22 88/121/22 87/122/22
f 23/24/22 25/26/22 93/123/22 92/45/22
f 33/34/22 35/36/22 98/124/22 97/111/22
f 9/10/22 11/12/22 86/125/22 85/113/22
f 19/20/22 21/22/22 91/46/22 90/114/22
f 29/30/22 31/32/22 96/112/22 95/116/22
f 39/42/22 1/44/22 81/126/22 100/118/22
f 5/6/22 7/8/22 84/108/22 83/107/22
f 15/16/22 17/18/22 89/115/22 88/121/22
f 1/1/22 3/4/22 82/120/22 81/127/22
f 25/26/22 27/28/22 94/117/22 93/123/22
f 35/36/22 37/38/22 99/119/22 98/124/22
f 11/12/22 13/14/22 87/122/22 86/125/22
f 101/128/22 102/129/22 103/130/22 104/131/22 105/132/22 106/133/22 107/134/22 108/135/22 109/136/22 110/137/22 111/138/22 112/139/22 113/140/22 114/141/22 115/142/22 116/143/22 117/144/22 118/145/22 119/146/22 120/147/22
f 98/124/8 99/119/8 119/148/8 118/149/8
f 91/46/1 92/45/1 112/150/1 111/151/1
f 84/108/14 85/113/14 105/152/14 104/109/14
f 99/119/9 100/118/9 120/153/9 119/148/9
f 92/45/2 93/123/2 113/154/2 112/150/2
f 85/113/15 86/125/15 106/155/15 105/152/15
f 100/118/10 81/126/10 101/156/10 120/153/10
f 93/123/3 94/117/3 114/157/3 113/154/3
f 86/125/16 87/122/16 107/158/16 106/155/16
f 94/117/4 95/116/4 115/159/4 114/157/4
f 87/122/17 88/121/17 108/160/17 107/158/17
f 95/116/5 96/112/5 116/161/5 115/159/5
f 88/121/18 89/115/18 109/162/18 108/160/18
f 81/127/11 82/120/11 102/163/11 101/164/11
f 96/112/6 97/111/6 117/165/6 116/161/6
f 89/115/20 90/114/20 110/166/20 109/162/20
f 82/120/12 83/107/12 103/110/12 102/163/12
f 97/111/7 98/124/7 118/149/7 117/165/7
f 90/114/21 91/46/21 111/151/21 110/166/21
