# Blender v2.92.0 OBJ File: 'Low Poly Coin.blend'
# www.blender.org
mtllib Low Poly Coin_000201.mtl
o Cylinder
v 0.484935 1.000000 -0.881780
v 0.669000 1.000000 -0.751755
v 0.456696 0.690983 -0.841804
v 0.640761 0.690983 -0.711780
v 0.374744 0.412214 -0.725791
v 0.558809 0.412214 -0.595766
v 0.247100 0.190983 -0.545096
v 0.431166 0.190983 -0.415072
v 0.086260 0.048943 -0.317407
v 0.270325 0.048943 -0.187383
v -0.092033 -0.000000 -0.065012
v 0.092033 -0.000000 0.065012
v -0.270325 0.048943 0.187383
v -0.086260 0.048943 0.317407
v -0.431165 0.190983 0.415072
v -0.247100 0.190983 0.545096
v -0.558809 0.412214 0.595766
v -0.374744 0.412214 0.725791
v -0.640761 0.690983 0.711780
v -0.456696 0.690983 0.841804
v -0.669000 1.000000 0.751755
v -0.484935 1.000000 0.881780
v -0.640761 1.309017 0.711780
v -0.456696 1.309017 0.841804
v -0.558809 1.587785 0.595766
v -0.374743 1.587785 0.725791
v -0.431165 1.809017 0.415071
v -0.247100 1.809017 0.545096
v -0.270325 1.951056 0.187382
v -0.086260 1.951056 0.317407
v -0.092032 2.000000 -0.065013
v 0.092033 2.000000 0.065011
v 0.086261 1.951056 -0.317408
v 0.270326 1.951056 -0.187384
v 0.247101 1.809016 -0.545097
v 0.431166 1.809016 -0.415072
v 0.374744 1.587784 -0.725792
v 0.558809 1.587784 -0.595767
v 0.456696 1.309015 -0.841804
v 0.640761 1.309015 -0.711780
v 0.613325 0.706433 -0.672940
v 0.640152 1.000000 -0.710917
v 0.535470 0.441604 -0.562728
v 0.414209 0.231433 -0.391067
v 0.261411 0.096496 -0.174763
v 0.092033 0.050000 0.065012
v -0.077345 0.096496 0.304787
v -0.230143 0.231433 0.521092
v -0.351405 0.441604 0.692752
v -0.429259 0.706434 0.802965
v -0.456086 1.000000 0.840941
v -0.429259 1.293566 0.802964
v -0.351405 1.558396 0.692752
v -0.230143 1.768566 0.521091
v -0.077345 1.903504 0.304787
v 0.092033 1.950000 0.065011
v 0.261411 1.903503 -0.174764
v 0.414209 1.768565 -0.391068
v 0.535471 1.558395 -0.562728
v 0.613325 1.293564 -0.672940
v 0.588822 0.706433 -0.690249
v 0.615649 1.000000 -0.728226
v 0.510967 0.441604 -0.580037
v 0.389706 0.231433 -0.408376
v 0.236908 0.096496 -0.192072
v 0.067530 0.050000 0.047703
v -0.101848 0.096496 0.287478
v -0.254646 0.231433 0.503783
v -0.375908 0.441604 0.675443
v -0.453762 0.706434 0.785655
v -0.480589 1.000000 0.823632
v -0.453762 1.293566 0.785655
v -0.375908 1.558396 0.675443
v -0.254646 1.768566 0.503782
v -0.101848 1.903504 0.287478
v 0.067530 1.950000 0.047702
v 0.236908 1.903503 -0.192073
v 0.389706 1.768565 -0.408377
v 0.510967 1.558395 -0.580037
v 0.588822 1.293564 -0.690249
v 0.456086 1.000000 -0.840941
v 0.429259 0.706433 -0.802965
v 0.351405 0.441604 -0.692752
v 0.230144 0.231433 -0.521092
v 0.077345 0.096496 -0.304787
v -0.092033 0.050000 -0.065012
v -0.261411 0.096496 0.174763
v -0.414209 0.231433 0.391067
v -0.535470 0.441604 0.562728
v -0.613325 0.706434 0.672940
v -0.640151 1.000000 0.710917
v -0.613325 1.293566 0.672940
v -0.535470 1.558396 0.562727
v -0.414209 1.768566 0.391067
v -0.261410 1.903504 0.174762
v -0.092032 1.950000 -0.065013
v 0.077346 1.903503 -0.304788
v 0.230144 1.768565 -0.521093
v 0.351405 1.558395 -0.692753
v 0.429260 1.293564 -0.802965
v 0.480589 1.000000 -0.823632
v 0.453762 0.706433 -0.785655
v 0.375908 0.441604 -0.675443
v 0.254647 0.231433 -0.503783
v 0.101848 0.096496 -0.287478
v -0.067530 0.050000 -0.047703
v -0.236908 0.096496 0.192072
v -0.389706 0.231433 0.408376
v -0.510967 0.441604 0.580037
v -0.588822 0.706434 0.690249
v -0.615648 1.000000 0.728226
v -0.588822 1.293566 0.690249
v -0.510967 1.558396 0.580036
v -0.389706 1.768566 0.408376
v -0.236907 1.903504 0.192071
v -0.067529 1.950000 -0.047704
v 0.101849 1.903503 -0.287479
v 0.254647 1.768565 -0.503784
v 0.375908 1.558395 -0.675444
v 0.453763 1.293564 -0.785656
vt 1.000000 0.500000
vt 1.000000 1.000000
vt 0.950000 1.000000
vt 0.950000 0.500000
vt 0.900000 1.000000
vt 0.900000 0.500000
vt 0.850000 1.000000
vt 0.850000 0.500000
vt 0.800000 1.000000
vt 0.800000 0.500000
vt 0.750000 1.000000
vt 0.750000 0.500000
vt 0.700000 1.000000
vt 0.700000 0.500000
vt 0.650000 1.000000
vt 0.650000 0.500000
vt 0.600000 1.000000
vt 0.600000 0.500000
vt 0.550000 1.000000
vt 0.550000 0.500000
vt 0.500000 1.000000
vt 0.500000 0.500000
vt 0.450000 1.000000
vt 0.450000 0.500000
vt 0.400000 1.000000
vt 0.400000 0.500000
vt 0.350000 1.000000
vt 0.350000 0.500000
vt 0.300000 1.000000
vt 0.300000 0.500000
vt 0.250000 1.000000
vt 0.250000 0.500000
vt 0.200000 1.000000
vt 0.200000 0.500000
vt 0.150000 1.000000
vt 0.150000 0.500000
vt 0.100000 1.000000
vt 0.100000 0.500000
vt 0.750000 1.000000
vt 0.700000 1.000000
vt 0.050000 1.000000
vt 0.050000 0.500000
vt -0.000000 1.000000
vt -0.000000 0.500000
vt 0.450000 0.500000
vt 0.500000 0.500000
vt 0.550000 1.000000
vt 0.600000 1.000000
vt 0.600000 1.000000
vt 0.550000 1.000000
vt 0.500000 1.000000
vt 0.450000 1.000000
vt 0.250000 1.000000
vt 0.200000 1.000000
vt 0.850000 1.000000
vt 0.800000 1.000000
vt 0.350000 1.000000
vt 0.300000 1.000000
vt 0.100000 1.000000
vt 0.050000 1.000000
vt 0.950000 1.000000
vt 0.900000 1.000000
vt 0.650000 1.000000
vt 0.400000 1.000000
vt 0.150000 1.000000
vt -0.000000 1.000000
vt 1.000000 1.000000
vt 0.324164 0.478254
vt 0.250000 0.490000
vt 0.175836 0.478254
vt 0.108932 0.444164
vt 0.055836 0.391069
vt 0.021747 0.324164
vt 0.010000 0.250000
vt 0.021746 0.175836
vt 0.055836 0.108932
vt 0.108931 0.055836
vt 0.175836 0.021746
vt 0.250000 0.010000
vt 0.324164 0.021746
vt 0.391068 0.055836
vt 0.444164 0.108932
vt 0.478254 0.175836
vt 0.490000 0.250000
vt 0.478254 0.324164
vt 0.444164 0.391068
vt 0.391068 0.444164
vt 0.950000 1.000000
vt 0.900000 1.000000
vt 0.200000 1.000000
vt 0.150000 1.000000
vt 0.500000 1.000000
vt 0.850000 1.000000
vt 0.100000 1.000000
vt 0.450000 1.000000
vt 0.800000 1.000000
vt 0.050000 1.000000
vt 0.400000 1.000000
vt 0.750000 1.000000
vt -0.000000 1.000000
vt 0.350000 1.000000
vt 0.700000 1.000000
vt 0.300000 1.000000
vt 0.650000 1.000000
vt 0.250000 1.000000
vt 1.000000 1.000000
vt 0.900000 0.500000
vt 0.850000 0.500000
vt 0.850000 0.500000
vt 0.900000 0.500000
vt 0.200000 0.500000
vt 0.250000 0.500000
vt 0.800000 0.500000
vt 0.550000 0.500000
vt 0.600000 0.500000
vt 0.300000 0.500000
vt 0.350000 0.500000
vt 0.050000 0.500000
vt 0.100000 0.500000
vt 0.950000 0.500000
vt 0.650000 0.500000
vt 0.700000 0.500000
vt 0.400000 0.500000
vt 0.150000 0.500000
vt 0.750000 0.500000
vt -0.000000 0.500000
vt 1.000000 0.500000
vt 0.750000 0.490000
vt 0.824164 0.478254
vt 0.891068 0.444164
vt 0.944164 0.391068
vt 0.978254 0.324164
vt 0.990000 0.250000
vt 0.978254 0.175836
vt 0.944164 0.108932
vt 0.891068 0.055836
vt 0.824164 0.021746
vt 0.750000 0.010000
vt 0.675836 0.021746
vt 0.608931 0.055836
vt 0.555836 0.108932
vt 0.521746 0.175836
vt 0.510000 0.250000
vt 0.521747 0.324164
vt 0.555836 0.391069
vt 0.608932 0.444164
vt 0.675836 0.478254
vt 0.100000 0.500000
vt 0.150000 0.500000
vt 0.450000 0.500000
vt 0.500000 0.500000
vt 0.800000 0.500000
vt 0.050000 0.500000
vt 0.400000 0.500000
vt 0.750000 0.500000
vt -0.000000 0.500000
vt 0.350000 0.500000
vt 0.700000 0.500000
vt 0.300000 0.500000
vt 0.650000 0.500000
vt 0.250000 0.500000
vt 0.600000 0.500000
vt 0.950000 0.500000
vt 1.000000 0.500000
vt 0.200000 0.500000
vt 0.550000 0.500000
vn 0.5699 -0.1564 -0.8067
vn 0.5141 -0.4540 -0.7277
vn 0.4080 -0.7071 -0.5775
vn 0.2619 -0.8910 -0.3708
vn 0.0903 -0.9877 -0.1278
vn -0.0903 -0.9877 0.1278
vn -0.2619 -0.8910 0.3708
vn -0.4080 -0.7071 0.5775
vn -0.5141 -0.4540 0.7277
vn -0.5699 -0.1564 0.8067
vn -0.5699 0.1564 0.8067
vn -0.5141 0.4540 0.7277
vn -0.4080 0.7071 0.5775
vn -0.2619 0.8910 0.3708
vn -0.0903 0.9877 0.1278
vn 0.0903 0.9877 -0.1278
vn 0.2619 0.8910 -0.3708
vn 0.4080 0.7071 -0.5775
vn 0.8168 -0.0000 0.5770
vn 0.5141 0.4540 -0.7277
vn 0.5699 0.1564 -0.8067
vn -0.8168 0.0000 -0.5770
g Cylinder_Cylinder_Material.001
usemtl Material.001
s off
f 1/1/1 2/2/1 4/3/1 3/4/1
f 3/4/2 4/3/2 6/5/2 5/6/2
f 5/6/3 6/5/3 8/7/3 7/8/3
f 7/8/4 8/7/4 10/9/4 9/10/4
f 9/10/5 10/9/5 12/11/5 11/12/5
f 11/12/6 12/11/6 14/13/6 13/14/6
f 13/14/7 14/13/7 16/15/7 15/16/7
f 15/16/8 16/15/8 18/17/8 17/18/8
f 17/18/9 18/17/9 20/19/9 19/20/9
f 19/20/10 20/19/10 22/21/10 21/22/10
f 21/22/11 22/21/11 24/23/11 23/24/11
f 23/24/12 24/23/12 26/25/12 25/26/12
f 25/26/13 26/25/13 28/27/13 27/28/13
f 27/28/14 28/27/14 30/29/14 29/30/14
f 29/30/15 30/29/15 32/31/15 31/32/15
f 31/32/16 32/31/16 34/33/16 33/34/16
f 33/34/17 34/33/17 36/35/17 35/36/17
f 35/36/18 36/35/18 38/37/18 37/38/18
f 14/13/19 12/11/19 46/39/19 47/40/19
f 37/38/20 38/37/20 40/41/20 39/42/20
f 39/42/21 40/41/21 2/43/21 1/44/21
f 21/22/22 23/24/22 92/45/22 91/46/22
f 50/47/20 49/48/20 69/49/20 70/50/20
f 24/23/19 22/21/19 51/51/19 52/52/19
f 34/33/19 32/31/19 56/53/19 57/54/19
f 10/9/19 8/7/19 44/55/19 45/56/19
f 20/19/19 18/17/19 49/48/19 50/47/19
f 30/29/19 28/27/19 54/57/19 55/58/19
f 40/41/19 38/37/19 59/59/19 60/60/19
f 6/5/19 4/3/19 41/61/19 43/62/19
f 16/15/19 14/13/19 47/40/19 48/63/19
f 26/25/19 24/23/19 52/52/19 53/64/19
f 36/35/19 34/33/19 57/54/19 58/65/19
f 12/11/19 10/9/19 45/56/19 46/39/19
f 22/21/19 20/19/19 50/47/19 51/51/19
f 32/31/19 30/29/19 55/58/19 56/53/19
f 2/43/19 40/41/19 60/60/19 42/66/19
f 8/7/19 6/5/19 43/62/19 44/55/19
f 18/17/19 16/15/19 48/63/19 49/48/19
f 4/3/19 2/2/19 42/67/19 41/61/19
f 28/27/19 26/25/19 53/64/19 54/57/19
f 38/37/19 36/35/19 58/65/19 59/59/19
f 61/68/19 62/69/19 80/70/19 79/71/19 78/72/19 77/73/19 76/74/19 75/75/19 74/76/19 73/77/19 72/78/19 71/79/19 70/80/19 69/81/19 68/82/19 67/83/19 66/84/19 65/85/19 64/86/19 63/87/19
f 43/62/12 41/61/12 61/88/12 63/89/12
f 58/65/7 57/54/7 77/90/7 78/91/7
f 51/51/21 50/47/21 70/50/21 71/92/21
f 44/55/13 43/62/13 63/89/13 64/93/13
f 59/59/8 58/65/8 78/91/8 79/94/8
f 52/52/1 51/51/1 71/92/1 72/95/1
f 45/56/14 44/55/14 64/93/14 65/96/14
f 60/60/9 59/59/9 79/94/9 80/97/9
f 53/64/2 52/52/2 72/95/2 73/98/2
f 46/39/15 45/56/15 65/96/15 66/99/15
f 42/66/10 60/60/10 80/97/10 62/100/10
f 54/57/3 53/64/3 73/98/3 74/101/3
f 47/40/16 46/39/16 66/99/16 67/102/16
f 55/58/4 54/57/4 74/101/4 75/103/4
f 48/63/17 47/40/17 67/102/17 68/104/17
f 56/53/5 55/58/5 75/103/5 76/105/5
f 49/48/18 48/63/18 68/104/18 69/49/18
f 41/61/11 42/67/11 62/106/11 61/88/11
f 57/54/6 56/53/6 76/105/6 77/90/6
f 83/107/13 84/108/13 104/109/13 103/110/13
f 31/32/22 33/34/22 97/111/22 96/112/22
f 7/8/22 9/10/22 85/113/22 84/108/22
f 17/18/22 19/20/22 90/114/22 89/115/22
f 27/28/22 29/30/22 95/116/22 94/117/22
f 37/38/22 39/42/22 100/118/22 99/119/22
f 3/4/22 5/6/22 83/107/22 82/120/22
f 13/14/22 15/16/22 88/121/22 87/122/22
f 23/24/22 25/26/22 93/123/22 92/45/22
f 33/34/22 35/36/22 98/124/22 97/111/22
f 9/10/22 11/12/22 86/125/22 85/113/22
f 19/20/22 21/22/22 91/46/22 90/114/22
f 29/30/22 31/32/22 96/112/22 95/116/22
f 39/42/22 1/44/22 81/126/22 100/118/22
f 5/6/22 7/8/22 84/108/22 83/107/22
f 15/16/22 17/18/22 89/115/22 88/121/22
f 1/1/22 3/4/22 82/120/22 81/127/22
f 25/26/22 27/28/22 94/117/22 93/123/22
f 35/36/22 37/38/22 99/119/22 98/124/22
f 11/12/22 13/14/22 87/122/22 86/125/22
f 101/128/22 102/129/22 103/130/22 104/131/22 105/132/22 106/133/22 107/134/22 108/135/22 109/136/22 110/137/22 111/138/22 112/139/22 113/140/22 114/141/22 115/142/22 116/143/22 117/144/22 118/145/22 119/146/22 120/147/22
f 98/124/8 99/119/8 119/148/8 118/149/8
f 91/46/1 92/45/1 112/150/1 111/151/1
f 84/108/14 85/113/14 105/152/14 104/109/14
f 99/119/9 100/118/9 120/153/9 119/148/9
f 92/45/2 93/123/2 113/154/2 112/150/2
f 85/113/15 86/125/15 106/155/15 105/152/15
f 100/118/10 81/126/10 101/156/10 120/153/10
f 93/123/3 94/117/3 114/157/3 113/154/3
f 86/125/16 87/122/16 107/158/16 106/155/16
f 94/117/4 95/116/4 115/159/4 114/157/4
f 87/122/17 88/121/17 108/160/17 107/158/17
f 95/116/5 96/112/5 116/161/5 115/159/5
f 88/121/18 89/115/18 109/162/18 108/160/18
f 81/127/11 82/120/11 102/163/11 101/164/11
f 96/112/6 97/111/6 117/165/6 116/161/6
f 89/115/20 90/114/20 110/166/20 109/162/20
f 82/120/12 83/107/12 103/110/12 102/163/12
f 97/111/7 98/124/7 118/149/7 117/165/7
f 90/114/21 91/46/21 111/151/21 110/166/21
